<?xml version="1.0"?>
<svg version="1.1" xmlns="http://www.w3.org/2000/svg" width="400px" height="200px" style="border: dashed 2px #aaa"><path fill="#f2f2f2" d="M71.48,123q-3.52,2.72-5.16,2.72q-0.88,0-1.3-0.86t-0.42-1.86q0-1.92,1.62-5.76t3.1-3.84q0.76,0,1.3,3t1.1,4.36q2.72-2.88,7.88-9.6q6.48-8.52,8.6-9.32q0.72-0.28,1.48-0.28t1.26,0.32t0.5,0.8q0,0.68-1.16,0.8q-1.4,0.76-4.32,3.68q-2.92,2.84-4.68,5.32q-4.28,5.96-8.8,9.72q2.24,3.32,7.04,3.32q0.52,0,1.56-0.08q11.12-1.04,15.76-9.64q1.88-3.44,1.88-6.8t-2.44-6.04q-1.96-2.2-4.26-2.72t-4.7-0.52q-6.16,0-11.36,2.84q-5.48,3-5.48,6.72q0,1,0.54,1.64t0.74,0.72l-0.24,0q-1.04-0.2-1.84-1.04q-0.88-1.04-0.88-2.2q0-4,5.02-6.88t11.78-2.88q3.12,0,6.4,0.72t5.96,3.44q3.08,3.2,3.08,7.24q0,3-1.76,6.2q-3.04,5.52-9.08,8.08q-4.84,2.04-10.44,2.04t-8.28-3.36z M66.04,122.84q0,1.24,0.48,2.16q1.72-0.76,4.16-3.16q-1.16-1.92-1.46-3.02t-0.42-2.9q-2.76,3.96-2.76,6.92z M71.76,111.64q0.04,0,0.08-0.04q0,0.08-0.02,0.08t-0.06-0.04z M118.2068,106.2q2.24,0,2.24,0.92q0,0.24-0.16,0.4q-0.52,0.88-2.26,0.88t-3.14-1.04q-2.16,0.64-5.04,2.72q-4.48,3.32-4.48,6.52q0,3.56,4.84,3.96q0.96-5.92,5.76-8.88q1.56-1,3.36-1.42t2.46-0.56t2.24-0.4t1.82-0.3q3.72-0.64,4.78-1.44t1.06-1.52q0-0.2-0.06-0.44t0.1-0.28t0.36,0.12q0.32,0.44,0.32,1.08t-0.8,1.56q-1.2,1.2-3.32,1.68q-0.8,0.2-2.14,0.46t-1.94,0.42q0.76,0.72,0.76,2.16q0,2.96-3.52,5.8q-3.88,3.12-10.4,3.12q-0.04,0.32-0.04,1q0,2.8,1.86,4.42t4.7,1.62q1,0,1.72-0.66t0.72-1.5q0-0.28-0.16-0.64t0.3-0.36t0.46,1.06t-0.92,1.88t-2.12,0.82q-3.12,0-5.2-1.72q-2.36-1.88-2.36-4.92q0-0.68,0.04-1.04q-3.48-0.32-5.28-1.76q-1.64-1.4-1.64-3.08q0-3.88,5.92-7.4q2.76-1.68,5.4-2.52q-1.12-1.24-1.12-3.24q0-1.04,0.48-1.72q1.32-1.88,4-3q3.16-1.4,6.4-1.4q4.28,0,4.2,2.68q-0.08,1.16-0.98,2.02t-1.98,0.86t-1.08-0.56q0-0.4,0.52-0.4l0.68,0.12q0.56,0,1.1-0.68t0.54-1.36q0-1.08-1.24-1.56q-0.8-0.28-1.52-0.28q-3.36,0-5.6,1.4t-3.28,3.12q-0.6,1-0.6,2.08t0.48,1.64q1.56-0.44,2.76-0.44z M123.6468,112.52q0-1.76-1.52-1.76q-0.48,0-1.96,0.36q-7.72,2.88-9,9.48q0.88,0,1.76-0.12q5.16-0.56,8.2-3.28q2.52-2.28,2.52-4.68z M119.2468,107.24q0-0.36-1.06-0.36t-2.26,0.24q1,0.64,2.16,0.64t1.16-0.52z M166.1336,106.88q-1.48,0.6-2.54,0.6t-1.06-0.44q0-0.28,1.18-0.32t1.7-0.28q1.52-0.8,1.52-2.36q0-0.8-0.44-1.68q-1.28-2.28-6.2-2.28q-2.84,0-5.68,0.86t-4.76,2.64t-1.92,3.3q0,2.32,4.6,3.4l4.72,0.88q2.84,0.52,4.24,1.44q1.84,1.12,1.84,3.2q0,0.84-0.28,1.8q-1.28,4.32-6.6,6.6q-4.44,1.96-10.48,1.96q-1.72,0-3-0.16q1.28,0.72,3.36,1.24q0.16,0.04,0.16,0.16q0,0.36-0.84,0.36q-1.64,0-4.08-1.96q-3.32-0.52-4.96-1.84q-1.04-0.84-1.92-2.48t-0.88-2.96t0.52-2.2q1.2-2.12,3.04-2.12q1.4,0,1.64,2.36q0.56,4.56,0.76,5.2q0.6,1.96,2.04,3.32q1.68,0.36,3.64,0.36q4.32,0,8.48-1.72t6-4.88q0.76-1.24,0.76-2.2q0-1.88-3.32-2.92l-7.04-1.6q-2.16-0.52-3.46-1.72t-1.3-2.76q0-2.4,3-4.8q2.28-1.84,5.58-2.86t6.48-1.02t5.26,0.92q2.68,1.24,2.68,3.62t-2.44,3.34z M140.3736,124.72q-2.32-2.56-2.96-7q-0.36-2.52-0.68-2.52t-0.6,0.18t-0.56,0.78t-0.28,1.56q0,3.08,2.16,5.28q1.08,1.12,2.92,1.72z M176.9872,121.32q0-4.32,2.56-8.56q-2.96-1.88-2.96-5.56q0-4.44,3.92-7.88q4.4-3.88,11.36-3.88q3.2,0,6.88,0.92q0.84,0.2,7.16,3.1t9.08,2.9q1.84,0,2.76-1.04q0.48-0.52,0.48-1.12t-0.52-1.08q-0.28-0.4-0.28-0.52t0.22-0.12t0.76,0.7t0.54,1.64t-1.26,1.8t-3.18,0.86q-3,0-9.32-2.9t-7.94-3.22t-3.7-0.32q-8.28,0-13.04,5.36q-0.56,0.6-1.32,2.42t-0.76,3.5q0,2.32,1.64,3.6q2.08-3.04,4.92-4.84t5.76-1.8q3.6,0,3.6,2.8q0,3.36-3.94,7.3t-7.3,3.94q-2.16,0-2.16-1.84q0-0.64,0.34-1.12t0.82-0.36l-0.08,0.92q0,0.6,1.84,0.6q2.72,0,5.74-2.8t3.66-5.48q0.16-0.6,0.16-1.08q0-1.8-2.3-1.8t-4.76,1.76t-4.62,4.64q0.16,0.08,1.24,0.32l2.4,0.08q1.76,0.08,1.76,0.4q0,0.56-1.68,0.56l-0.24,0q-2.44,0-4-0.6q-3.08,4.72-3.08,8.68q0,5.12,3.96,5.12q4.48,0,9.32-6.24l7.84-11.68q4.4-6.4,7.64-6.56l1.52,0.36q0.72,0.4,0.72,1.2t-0.4,0.8l-1.28-0.2q-2.76,0-7.08,5.96l-7.96,11.12q-5.12,5.96-9.8,5.96q-3.2,0-4.42-1.72t-1.22-5z M206.114,124.52q-0.44,0-0.8-0.12q-2.56-0.72-2.56-2.88q0-2.8,3.52-6.48t6.32-3.68q0.92,0,1.5,0.5t0.58,1.22q0,2.24-3.38,4.28t-5.5,2.04q-0.32,0-0.56-0.08q-0.6,1.08-0.6,2.28q0,2.08,1.98,2.08t5.14-2.68q2.44-1.96,4.16-4.16q0.36-0.48,0.62-0.48t0.26,0.24t-0.32,0.68q-2.16,2.84-5.2,5.04t-5.16,2.2z M213.674,113q0-0.48-1.02-0.48t-2.9,1.56q-2.52,2.08-3.92,4.36q0.24,0.08,0.52,0.08q1.52,0,4.06-1.62t3.18-3.54q0.08-0.2,0.08-0.36z M219.1608,124.52q-0.44,0-0.8-0.12q-2.56-0.72-2.56-2.88q0-2.8,3.52-6.48t6.32-3.68q0.92,0,1.5,0.5t0.58,1.36t-0.52,1.8t-1.56,0.94t-1.04-0.64q0-0.44,0.54-1.34t0.54-0.96t-0.12-0.06q-1.12,0.12-3.06,1.6t-2.66,2.48l-1.56,2.28q-0.4,0.64-0.58,1.52t-0.18,1.32t0.5,1t1.42,0.56q2,0,4.96-2.34t4.56-4.46q0.2-0.24,0.48-0.24t0.28,0.16t-0.2,0.4q-2.2,2.92-5.26,5.1t-5.1,2.18z M238.6876,123.84q-2.36,0-2.36-2.76q0-1.56,1.1-3.46t2.7-4.46q-5.12,2.56-9.28,7.56q-2.32,3.48-2.72,3.48q-1.16,0-1.16-0.68q0-0.36,0.48-1.28q3.88-6.92,5.88-10.12q4.76-7.64,6.72-8.28q0.08-0.04,0.16-0.04q0.52,0,0.72,0.84q-0.12,0.84-4.16,6.08q-4.2,5.32-4.76,6.96q1.48-1.08,5.16-3.64q3.96-2.76,5.24-2.76t1.28,1q0,0.16-0.02,0.22t-2.78,3.78t-2.76,5.48q0,0.92,0.68,0.92q2.16-0.08,6.48-5.2q0.36-0.36,0.54-0.36t0.18,0.24q0,0.8-3.96,4.32q-2.48,2.16-3.36,2.16z M252.4544,111.36q1.08,0,1.08,0.84q0,0.24-0.12,0.48q-3.6,5-4.32,7.56q9.32-9.32,11.32-9.32q0.2-0.04,0.36-0.04q1.12,0,1.12,1q0,0.2-0.08,0.4t-1.6,2.16q-1.76,2.08-2.98,4t-1.22,3.2t0.56,1.28q1.76,0,6.12-4.84q0.08-0.08,0.28-0.36q0.6-0.72,0.72-0.72t0.12,0.4t-0.56,1.04q-4.96,5.64-7.04,5.64q-1.96,0-1.96-2.16t1.6-4.96l2.56-4.16q-2.72,2-4.84,4.38t-3.86,4.62t-2.02,2.24q-0.6,0-0.94-0.5t-0.34-1.24t0.52-1.98t1.32-3l-2.4,2.52q-0.88,0.88-1.1,0.88t-0.22-0.26t0.32-0.58q1.48-1.48,2.56-2.84q1.04-1.36,4.28-5.2q0.36-0.48,0.76-0.48z M274.3412,115.52q0,1.4-2.68,4.68q-3.16,3.88-5.4,3.88l-0.64,0q-1.04,0-1.64-1.08q-0.48-0.76-0.48-1.68q0-2.4,3.5-6.74t5.66-4.34q2.04,0,2.04,2.16q0,0.56-0.2,1.44q0.04,0.12,0.76,0.12t2.2-0.76q-0.04,0.68-3.16,1.96q0.04,0.16,0.04,0.36z M271.7412,113.44q-1.36,0-3.86,3.2t-2.5,4.72t0.96,1.52q1.72,0,4.36-3.12t2.64-4.48q-0.64-0.36-1.6-1.84z M279.788,123.2q1.32,0,3.4-1.4t4.04-3.8q0.48-0.64,0.76-0.64t0.28,0.24t-1.64,2.08q-4,4.4-6.68,4.4q-1.32,0-2.24-0.62t-0.92-1.92t0.68-3.02q1.16-2.72,3.72-6.84q4.68-7.6,6.64-7.6q0.4,0,0.82,0.3t0.46,0.66q-0.92,1.24-3.54,4.76t-3.62,5.06t-1.5,2.3t-0.74,1.18t-0.56,1.1q-0.68,1.36-0.68,2.56t1.32,1.2z M298.8348,115.52q0,1.4-2.68,4.68q-3.16,3.88-5.4,3.88l-0.64,0q-1.04,0-1.64-1.08q-0.48-0.76-0.48-1.68q0-2.4,3.5-6.74t5.66-4.34q2.04,0,2.04,2.16q0,0.56-0.2,1.44q0.04,0.12,0.76,0.12t2.2-0.76q-0.04,0.68-3.16,1.96q0.04,0.16,0.04,0.36z M296.2348,113.44q-1.36,0-3.86,3.2t-2.5,4.72t0.96,1.52q1.72,0,4.36-3.12t2.64-4.48q-0.64-0.36-1.6-1.84z M314.7616,111.8l0.56-0.12q0.52,0,0.82,0.32t0.3,0.5t-0.04,0.4t-1.16,2.02q-1.4,2.44-2.32,4.12q-3.24,6.04-4.96,8.28q-3.68,4.88-7,4.88q-1.16,0-2.02-0.98t-0.9-2.18q0.12-0.48,0.36-0.48q0.12,0,0.2,0.28q0.2,1.04,0.76,1.6t1.12,0.56q2.28,0,4.88-3q1.72-2,3.8-5.84l2-3.96l-3,3.04q-2.88,2.76-3.94,2.76t-2.02-0.72q-1.08-0.8-1.08-2.12q0-2.92,4.1-6.96t7.46-4.04q1.36,0,1.76,0.88q0.12,0.32,0.2,0.54t0.12,0.22z M302.8016,121.64q0,1.44,1,1.44q2.32,0,6.32-5.08l4.24-5.84q-0.24-0.56-1-0.56q-2.48,0-6.52,3.82t-4.04,6.22z M315.7284,128.64q1.92,2.4,3.32,2.4q2.28,0,4.92-3.64q1.92-2.68,3.76-6.76l1.52-3.68l-5.88,4.6q-2.72,2.12-4.36,2.12q-0.88,0-1.4-0.6t-0.52-1.36q0-1.72,2.96-5.66t4.32-3.94t1.36,0.92q0,0.36-3.54,4.14t-3.54,5.1q0,0.52,0.68,0.52q1.28,0,5.14-3t5.82-4.96q0.44-0.52,1.24-1.56q0.76-0.88,1.68-0.88t0.92,0.88q0,0.16-1.8,2.84t-1.88,2.84q-1.24,2.4-3.8,7q-3.88,6.24-7.76,6.24q-1.28,0-2.24-1.1t-0.92-2.46z"/><path fill="#dbdbdb" d=""/></svg>
